<?xml version="1.0" encoding="UTF-8"?>
<svg xmlns="http://www.w3.org/2000/svg" xmlns:xlink="http://www.w3.org/1999/xlink" viewBox="0 0 24 24" width="24px" height="24px">
<g id="surface37731688">
<path style=" stroke:none;fill-rule:nonzero;fill:rgb(90.000001%,90.000001%,80.000001%);fill-opacity:2;" d="M 12 2 C 6.5 2 2 6.5 2 12 C 2 16.199219 4.601562 19.800781 8.398438 21.300781 C 8.300781 20.5 8.199219 19.300781 8.398438 18.398438 C 8.601562 17.601562 9.601562 13.398438 9.601562 13.398438 C 9.601562 13.398438 9.300781 12.898438 9.300781 12 C 9.300781 10.601562 10.101562 9.601562 11.101562 9.601562 C 12 9.601562 12.398438 10.199219 12.398438 11 C 12.398438 11.898438 11.800781 13.101562 11.601562 14.300781 C 11.398438 15.300781 12.101562 16.101562 13.101562 16.101562 C 14.898438 16.101562 16.199219 14.199219 16.199219 11.5 C 16.199219 9.101562 14.5 7.398438 12 7.398438 C 9.101562 7.398438 7.5 9.5 7.5 11.699219 C 7.5 12.601562 7.800781 13.5 8.300781 14 C 8.398438 14.101562 8.398438 14.199219 8.398438 14.300781 C 8.300781 14.601562 8.101562 15.300781 8.101562 15.398438 C 8.101562 15.601562 8 15.601562 7.800781 15.5 C 6.601562 14.898438 5.800781 13.101562 5.800781 11.601562 C 5.800781 8.398438 8.101562 5.601562 12.398438 5.601562 C 15.898438 5.601562 18.601562 8.101562 18.601562 11.398438 C 18.601562 14.898438 16.398438 17.601562 13.398438 17.601562 C 12.398438 17.601562 11.398438 17.101562 11.101562 16.5 C 11.101562 16.5 10.601562 18.398438 10.5 18.898438 C 10.300781 19.800781 9.699219 20.898438 9.300781 21.5 C 10 21.800781 11 22 12 22 C 17.5 22 22 17.5 22 12 C 22 6.5 17.5 2 12 2 Z M 12 2 "/>
</g>
</svg>
